<?xml version="1.0" encoding="utf-8" standalone="no"?>
<!DOCTYPE svg PUBLIC "-//W3C//DTD SVG 1.1//EN"
  "http://www.w3.org/Graphics/SVG/1.1/DTD/svg11.dtd">
<svg xmlns:xlink="http://www.w3.org/1999/xlink" width="856.8pt" height="1000.8pt" viewBox="0 0 856.8 1000.8" xmlns="http://www.w3.org/2000/svg" version="1.1">
 <metadata>
  <rdf:RDF xmlns:dc="http://purl.org/dc/elements/1.1/" xmlns:cc="http://creativecommons.org/ns#" xmlns:rdf="http://www.w3.org/1999/02/22-rdf-syntax-ns#">
   <cc:Work>
    <dc:type rdf:resource="http://purl.org/dc/dcmitype/StillImage"/>
    <dc:date>2025-10-15T00:02:01.883850</dc:date>
    <dc:format>image/svg+xml</dc:format>
    <dc:creator>
     <cc:Agent>
      <dc:title>Matplotlib v3.10.0, https://matplotlib.org/</dc:title>
     </cc:Agent>
    </dc:creator>
   </cc:Work>
  </rdf:RDF>
 </metadata>
 <defs>
  <style type="text/css">*{stroke-linejoin: round; stroke-linecap: butt}</style>
 </defs>
 <g id="figure_1">
  <g id="patch_1">
   <path d="M 0 1000.8 
L 856.8 1000.8 
L 856.8 0 
L 0 0 
z
" style="fill: #ffffff"/>
  </g>
  <g id="axes_1">
   <g id="patch_2">
    <path d="M 428.4 122.28 
C 445.155532 122.28 461.227056 120.547778 473.075006 117.464835 
C 484.922957 114.381893 491.58 110.199939 491.58 105.84 
C 491.58 101.480061 484.922957 97.298107 473.075006 94.215165 
C 461.227056 91.132222 445.155532 89.4 428.4 89.4 
C 411.644468 89.4 395.572944 91.132222 383.724994 94.215165 
C 371.877043 97.298107 365.22 101.480061 365.22 105.84 
C 365.22 110.199939 371.877043 114.381893 383.724994 117.464835 
C 395.572944 120.547778 411.644468 122.28 428.4 122.28 
z
" clip-path="url(#p00b8de341a)" style="stroke: #000000; stroke-width: 2; stroke-linejoin: miter"/>
   </g>
   <g id="patch_3">
    <path d="M 276.768 151.872 
L 580.032 151.872 
L 537.912 197.904 
L 234.648 197.904 
z
" clip-path="url(#p00b8de341a)" style="fill: #add8e6; opacity: 0.3; stroke: #000000; stroke-width: 2; stroke-linejoin: miter"/>
   </g>
   <g id="patch_4">
    <path d="M 276.768 270.24 
L 580.032 270.24 
L 580.032 230.784 
L 276.768 230.784 
z
" clip-path="url(#p00b8de341a)" style="fill: #90ee90; opacity: 0.3; stroke: #000000; stroke-width: 2; stroke-linejoin: miter"/>
   </g>
   <g id="patch_5">
    <path d="M 259.92 349.152 
L 596.88 349.152 
L 596.88 309.696 
L 259.92 309.696 
z
" clip-path="url(#p00b8de341a)" style="fill: #ffffe0; opacity: 0.4; stroke: #000000; stroke-width: 2; stroke-linejoin: miter"/>
   </g>
   <g id="patch_6">
    <path d="M 259.92 428.064 
L 596.88 428.064 
L 596.88 388.608 
L 259.92 388.608 
z
" clip-path="url(#p00b8de341a)" style="fill: #f08080; opacity: 0.4; stroke: #000000; stroke-width: 2; stroke-linejoin: miter"/>
   </g>
   <g id="patch_7">
    <path d="M 78.804 579.312 
L 188.316 579.312 
L 188.316 513.552 
L 78.804 513.552 
z
" clip-path="url(#p00b8de341a)" style="fill: #f5deb3; opacity: 0.6; stroke: #000000; stroke-width: 2; stroke-linejoin: miter"/>
   </g>
   <g id="patch_8">
    <path d="M 222.012 579.312 
L 331.524 579.312 
L 331.524 513.552 
L 222.012 513.552 
z
" clip-path="url(#p00b8de341a)" style="fill: #f5deb3; opacity: 0.6; stroke: #000000; stroke-width: 2; stroke-linejoin: miter"/>
   </g>
   <g id="patch_9">
    <path d="M 373.644 579.312 
L 483.156 579.312 
L 483.156 513.552 
L 373.644 513.552 
z
" clip-path="url(#p00b8de341a)" style="fill: #f5deb3; opacity: 0.6; stroke: #000000; stroke-width: 2; stroke-linejoin: miter"/>
   </g>
   <g id="patch_10">
    <path d="M 516.852 579.312 
L 626.364 579.312 
L 626.364 513.552 
L 516.852 513.552 
z
" clip-path="url(#p00b8de341a)" style="fill: #f5deb3; opacity: 0.6; stroke: #000000; stroke-width: 2; stroke-linejoin: miter"/>
   </g>
   <g id="patch_11">
    <path d="M 243.072 671.376 
L 613.728 671.376 
L 613.728 631.92 
L 243.072 631.92 
z
" clip-path="url(#p00b8de341a)" style="fill: #ffb6c1; opacity: 0.4; stroke: #000000; stroke-width: 2; stroke-linejoin: miter"/>
   </g>
   <g id="patch_12">
    <path d="M 259.92 750.288 
L 596.88 750.288 
L 596.88 710.832 
L 259.92 710.832 
z
" clip-path="url(#p00b8de341a)" style="fill: #add8e6; opacity: 0.4; stroke: #000000; stroke-width: 2; stroke-linejoin: miter"/>
   </g>
   <g id="patch_13">
    <path d="M 276.768 802.896 
L 580.032 802.896 
L 537.912 855.504 
L 234.648 855.504 
z
" clip-path="url(#p00b8de341a)" style="fill: #add8e6; opacity: 0.3; stroke: #000000; stroke-width: 2; stroke-linejoin: miter"/>
   </g>
   <g id="patch_14">
    <path d="M 428.4 924.552 
C 445.155532 924.552 461.227056 922.819778 473.075006 919.736835 
C 484.922957 916.653893 491.58 912.471939 491.58 908.112 
C 491.58 903.752061 484.922957 899.570107 473.075006 896.487165 
C 461.227056 893.404222 445.155532 891.672 428.4 891.672 
C 411.644468 891.672 395.572944 893.404222 383.724994 896.487165 
C 371.877043 899.570107 365.22 903.752061 365.22 908.112 
C 365.22 912.471939 371.877043 916.653893 383.724994 919.736835 
C 395.572944 922.819778 411.644468 924.552 428.4 924.552 
z
" clip-path="url(#p00b8de341a)" style="stroke: #000000; stroke-width: 2; stroke-linejoin: miter"/>
   </g>
   <g id="text_1">
    <!-- Spelling Correction System Flowchart -->
    <g transform="translate(258.275 53.232) scale(0.16 -0.16)">
     <defs>
      <path id="DejaVuSans-Bold-53" d="M 3834 4519 
L 3834 3531 
Q 3450 3703 3084 3790 
Q 2719 3878 2394 3878 
Q 1963 3878 1756 3759 
Q 1550 3641 1550 3391 
Q 1550 3203 1689 3098 
Q 1828 2994 2194 2919 
L 2706 2816 
Q 3484 2659 3812 2340 
Q 4141 2022 4141 1434 
Q 4141 663 3683 286 
Q 3225 -91 2284 -91 
Q 1841 -91 1394 -6 
Q 947 78 500 244 
L 500 1259 
Q 947 1022 1364 901 
Q 1781 781 2169 781 
Q 2563 781 2772 912 
Q 2981 1044 2981 1288 
Q 2981 1506 2839 1625 
Q 2697 1744 2272 1838 
L 1806 1941 
Q 1106 2091 782 2419 
Q 459 2747 459 3303 
Q 459 4000 909 4375 
Q 1359 4750 2203 4750 
Q 2588 4750 2994 4692 
Q 3400 4634 3834 4519 
z
" transform="scale(0.015625)"/>
      <path id="DejaVuSans-Bold-70" d="M 1656 506 
L 1656 -1331 
L 538 -1331 
L 538 3500 
L 1656 3500 
L 1656 2988 
Q 1888 3294 2169 3439 
Q 2450 3584 2816 3584 
Q 3463 3584 3878 3070 
Q 4294 2556 4294 1747 
Q 4294 938 3878 423 
Q 3463 -91 2816 -91 
Q 2450 -91 2169 54 
Q 1888 200 1656 506 
z
M 2400 2772 
Q 2041 2772 1848 2508 
Q 1656 2244 1656 1747 
Q 1656 1250 1848 986 
Q 2041 722 2400 722 
Q 2759 722 2948 984 
Q 3138 1247 3138 1747 
Q 3138 2247 2948 2509 
Q 2759 2772 2400 2772 
z
" transform="scale(0.015625)"/>
      <path id="DejaVuSans-Bold-65" d="M 4031 1759 
L 4031 1441 
L 1416 1441 
Q 1456 1047 1700 850 
Q 1944 653 2381 653 
Q 2734 653 3104 758 
Q 3475 863 3866 1075 
L 3866 213 
Q 3469 63 3072 -14 
Q 2675 -91 2278 -91 
Q 1328 -91 801 392 
Q 275 875 275 1747 
Q 275 2603 792 3093 
Q 1309 3584 2216 3584 
Q 3041 3584 3536 3087 
Q 4031 2591 4031 1759 
z
M 2881 2131 
Q 2881 2450 2695 2645 
Q 2509 2841 2209 2841 
Q 1884 2841 1681 2658 
Q 1478 2475 1428 2131 
L 2881 2131 
z
" transform="scale(0.015625)"/>
      <path id="DejaVuSans-Bold-6c" d="M 538 4863 
L 1656 4863 
L 1656 0 
L 538 0 
L 538 4863 
z
" transform="scale(0.015625)"/>
      <path id="DejaVuSans-Bold-69" d="M 538 3500 
L 1656 3500 
L 1656 0 
L 538 0 
L 538 3500 
z
M 538 4863 
L 1656 4863 
L 1656 3950 
L 538 3950 
L 538 4863 
z
" transform="scale(0.015625)"/>
      <path id="DejaVuSans-Bold-6e" d="M 4056 2131 
L 4056 0 
L 2931 0 
L 2931 347 
L 2931 1631 
Q 2931 2084 2911 2256 
Q 2891 2428 2841 2509 
Q 2775 2619 2662 2680 
Q 2550 2741 2406 2741 
Q 2056 2741 1856 2470 
Q 1656 2200 1656 1722 
L 1656 0 
L 538 0 
L 538 3500 
L 1656 3500 
L 1656 2988 
Q 1909 3294 2193 3439 
Q 2478 3584 2822 3584 
Q 3428 3584 3742 3212 
Q 4056 2841 4056 2131 
z
" transform="scale(0.015625)"/>
      <path id="DejaVuSans-Bold-67" d="M 2919 594 
Q 2688 288 2409 144 
Q 2131 0 1766 0 
Q 1125 0 706 504 
Q 288 1009 288 1791 
Q 288 2575 706 3076 
Q 1125 3578 1766 3578 
Q 2131 3578 2409 3434 
Q 2688 3291 2919 2981 
L 2919 3500 
L 4044 3500 
L 4044 353 
Q 4044 -491 3511 -936 
Q 2978 -1381 1966 -1381 
Q 1638 -1381 1331 -1331 
Q 1025 -1281 716 -1178 
L 716 -306 
Q 1009 -475 1290 -558 
Q 1572 -641 1856 -641 
Q 2406 -641 2662 -400 
Q 2919 -159 2919 353 
L 2919 594 
z
M 2181 2772 
Q 1834 2772 1640 2515 
Q 1447 2259 1447 1791 
Q 1447 1309 1634 1061 
Q 1822 813 2181 813 
Q 2531 813 2725 1069 
Q 2919 1325 2919 1791 
Q 2919 2259 2725 2515 
Q 2531 2772 2181 2772 
z
" transform="scale(0.015625)"/>
      <path id="DejaVuSans-Bold-20" transform="scale(0.015625)"/>
      <path id="DejaVuSans-Bold-43" d="M 4288 256 
Q 3956 84 3597 -3 
Q 3238 -91 2847 -91 
Q 1681 -91 1000 561 
Q 319 1213 319 2328 
Q 319 3447 1000 4098 
Q 1681 4750 2847 4750 
Q 3238 4750 3597 4662 
Q 3956 4575 4288 4403 
L 4288 3438 
Q 3953 3666 3628 3772 
Q 3303 3878 2944 3878 
Q 2300 3878 1931 3465 
Q 1563 3053 1563 2328 
Q 1563 1606 1931 1193 
Q 2300 781 2944 781 
Q 3303 781 3628 887 
Q 3953 994 4288 1222 
L 4288 256 
z
" transform="scale(0.015625)"/>
      <path id="DejaVuSans-Bold-6f" d="M 2203 2784 
Q 1831 2784 1636 2517 
Q 1441 2250 1441 1747 
Q 1441 1244 1636 976 
Q 1831 709 2203 709 
Q 2569 709 2762 976 
Q 2956 1244 2956 1747 
Q 2956 2250 2762 2517 
Q 2569 2784 2203 2784 
z
M 2203 3584 
Q 3106 3584 3614 3096 
Q 4122 2609 4122 1747 
Q 4122 884 3614 396 
Q 3106 -91 2203 -91 
Q 1297 -91 786 396 
Q 275 884 275 1747 
Q 275 2609 786 3096 
Q 1297 3584 2203 3584 
z
" transform="scale(0.015625)"/>
      <path id="DejaVuSans-Bold-72" d="M 3138 2547 
Q 2991 2616 2845 2648 
Q 2700 2681 2553 2681 
Q 2122 2681 1889 2404 
Q 1656 2128 1656 1613 
L 1656 0 
L 538 0 
L 538 3500 
L 1656 3500 
L 1656 2925 
Q 1872 3269 2151 3426 
Q 2431 3584 2822 3584 
Q 2878 3584 2943 3579 
Q 3009 3575 3134 3559 
L 3138 2547 
z
" transform="scale(0.015625)"/>
      <path id="DejaVuSans-Bold-63" d="M 3366 3391 
L 3366 2478 
Q 3138 2634 2908 2709 
Q 2678 2784 2431 2784 
Q 1963 2784 1702 2511 
Q 1441 2238 1441 1747 
Q 1441 1256 1702 982 
Q 1963 709 2431 709 
Q 2694 709 2930 787 
Q 3166 866 3366 1019 
L 3366 103 
Q 3103 6 2833 -42 
Q 2563 -91 2291 -91 
Q 1344 -91 809 395 
Q 275 881 275 1747 
Q 275 2613 809 3098 
Q 1344 3584 2291 3584 
Q 2566 3584 2833 3536 
Q 3100 3488 3366 3391 
z
" transform="scale(0.015625)"/>
      <path id="DejaVuSans-Bold-74" d="M 1759 4494 
L 1759 3500 
L 2913 3500 
L 2913 2700 
L 1759 2700 
L 1759 1216 
Q 1759 972 1856 886 
Q 1953 800 2241 800 
L 2816 800 
L 2816 0 
L 1856 0 
Q 1194 0 917 276 
Q 641 553 641 1216 
L 641 2700 
L 84 2700 
L 84 3500 
L 641 3500 
L 641 4494 
L 1759 4494 
z
" transform="scale(0.015625)"/>
      <path id="DejaVuSans-Bold-79" d="M 78 3500 
L 1197 3500 
L 2138 1125 
L 2938 3500 
L 4056 3500 
L 2584 -331 
Q 2363 -916 2067 -1148 
Q 1772 -1381 1288 -1381 
L 641 -1381 
L 641 -647 
L 991 -647 
Q 1275 -647 1404 -556 
Q 1534 -466 1606 -231 
L 1638 -134 
L 78 3500 
z
" transform="scale(0.015625)"/>
      <path id="DejaVuSans-Bold-73" d="M 3272 3391 
L 3272 2541 
Q 2913 2691 2578 2766 
Q 2244 2841 1947 2841 
Q 1628 2841 1473 2761 
Q 1319 2681 1319 2516 
Q 1319 2381 1436 2309 
Q 1553 2238 1856 2203 
L 2053 2175 
Q 2913 2066 3209 1816 
Q 3506 1566 3506 1031 
Q 3506 472 3093 190 
Q 2681 -91 1863 -91 
Q 1516 -91 1145 -36 
Q 775 19 384 128 
L 384 978 
Q 719 816 1070 734 
Q 1422 653 1784 653 
Q 2113 653 2278 743 
Q 2444 834 2444 1013 
Q 2444 1163 2330 1236 
Q 2216 1309 1875 1350 
L 1678 1375 
Q 931 1469 631 1722 
Q 331 1975 331 2491 
Q 331 3047 712 3315 
Q 1094 3584 1881 3584 
Q 2191 3584 2531 3537 
Q 2872 3491 3272 3391 
z
" transform="scale(0.015625)"/>
      <path id="DejaVuSans-Bold-6d" d="M 3781 2919 
Q 3994 3244 4286 3414 
Q 4578 3584 4928 3584 
Q 5531 3584 5847 3212 
Q 6163 2841 6163 2131 
L 6163 0 
L 5038 0 
L 5038 1825 
Q 5041 1866 5042 1909 
Q 5044 1953 5044 2034 
Q 5044 2406 4934 2573 
Q 4825 2741 4581 2741 
Q 4263 2741 4089 2478 
Q 3916 2216 3909 1719 
L 3909 0 
L 2784 0 
L 2784 1825 
Q 2784 2406 2684 2573 
Q 2584 2741 2328 2741 
Q 2006 2741 1831 2477 
Q 1656 2213 1656 1722 
L 1656 0 
L 531 0 
L 531 3500 
L 1656 3500 
L 1656 2988 
Q 1863 3284 2130 3434 
Q 2397 3584 2719 3584 
Q 3081 3584 3359 3409 
Q 3638 3234 3781 2919 
z
" transform="scale(0.015625)"/>
      <path id="DejaVuSans-Bold-46" d="M 588 4666 
L 3834 4666 
L 3834 3756 
L 1791 3756 
L 1791 2888 
L 3713 2888 
L 3713 1978 
L 1791 1978 
L 1791 0 
L 588 0 
L 588 4666 
z
" transform="scale(0.015625)"/>
      <path id="DejaVuSans-Bold-77" d="M 225 3500 
L 1313 3500 
L 1900 1088 
L 2491 3500 
L 3425 3500 
L 4013 1113 
L 4603 3500 
L 5691 3500 
L 4769 0 
L 3547 0 
L 2956 2406 
L 2369 0 
L 1147 0 
L 225 3500 
z
" transform="scale(0.015625)"/>
      <path id="DejaVuSans-Bold-68" d="M 4056 2131 
L 4056 0 
L 2931 0 
L 2931 347 
L 2931 1625 
Q 2931 2084 2911 2256 
Q 2891 2428 2841 2509 
Q 2775 2619 2662 2680 
Q 2550 2741 2406 2741 
Q 2056 2741 1856 2470 
Q 1656 2200 1656 1722 
L 1656 0 
L 538 0 
L 538 4863 
L 1656 4863 
L 1656 2988 
Q 1909 3294 2193 3439 
Q 2478 3584 2822 3584 
Q 3428 3584 3742 3212 
Q 4056 2841 4056 2131 
z
" transform="scale(0.015625)"/>
      <path id="DejaVuSans-Bold-61" d="M 2106 1575 
Q 1756 1575 1579 1456 
Q 1403 1338 1403 1106 
Q 1403 894 1545 773 
Q 1688 653 1941 653 
Q 2256 653 2472 879 
Q 2688 1106 2688 1447 
L 2688 1575 
L 2106 1575 
z
M 3816 1997 
L 3816 0 
L 2688 0 
L 2688 519 
Q 2463 200 2181 54 
Q 1900 -91 1497 -91 
Q 953 -91 614 226 
Q 275 544 275 1050 
Q 275 1666 698 1953 
Q 1122 2241 2028 2241 
L 2688 2241 
L 2688 2328 
Q 2688 2594 2478 2717 
Q 2269 2841 1825 2841 
Q 1466 2841 1156 2769 
Q 847 2697 581 2553 
L 581 3406 
Q 941 3494 1303 3539 
Q 1666 3584 2028 3584 
Q 2975 3584 3395 3211 
Q 3816 2838 3816 1997 
z
" transform="scale(0.015625)"/>
     </defs>
     <use xlink:href="#DejaVuSans-Bold-53"/>
     <use xlink:href="#DejaVuSans-Bold-70" transform="translate(72.021484 0)"/>
     <use xlink:href="#DejaVuSans-Bold-65" transform="translate(143.603516 0)"/>
     <use xlink:href="#DejaVuSans-Bold-6c" transform="translate(211.425781 0)"/>
     <use xlink:href="#DejaVuSans-Bold-6c" transform="translate(245.703125 0)"/>
     <use xlink:href="#DejaVuSans-Bold-69" transform="translate(279.980469 0)"/>
     <use xlink:href="#DejaVuSans-Bold-6e" transform="translate(314.257812 0)"/>
     <use xlink:href="#DejaVuSans-Bold-67" transform="translate(385.449219 0)"/>
     <use xlink:href="#DejaVuSans-Bold-20" transform="translate(457.03125 0)"/>
     <use xlink:href="#DejaVuSans-Bold-43" transform="translate(491.845703 0)"/>
     <use xlink:href="#DejaVuSans-Bold-6f" transform="translate(565.234375 0)"/>
     <use xlink:href="#DejaVuSans-Bold-72" transform="translate(633.935547 0)"/>
     <use xlink:href="#DejaVuSans-Bold-72" transform="translate(683.251953 0)"/>
     <use xlink:href="#DejaVuSans-Bold-65" transform="translate(732.568359 0)"/>
     <use xlink:href="#DejaVuSans-Bold-63" transform="translate(800.390625 0)"/>
     <use xlink:href="#DejaVuSans-Bold-74" transform="translate(859.667969 0)"/>
     <use xlink:href="#DejaVuSans-Bold-69" transform="translate(907.470703 0)"/>
     <use xlink:href="#DejaVuSans-Bold-6f" transform="translate(941.748047 0)"/>
     <use xlink:href="#DejaVuSans-Bold-6e" transform="translate(1010.449219 0)"/>
     <use xlink:href="#DejaVuSans-Bold-20" transform="translate(1081.640625 0)"/>
     <use xlink:href="#DejaVuSans-Bold-53" transform="translate(1116.455078 0)"/>
     <use xlink:href="#DejaVuSans-Bold-79" transform="translate(1188.476562 0)"/>
     <use xlink:href="#DejaVuSans-Bold-73" transform="translate(1253.662109 0)"/>
     <use xlink:href="#DejaVuSans-Bold-74" transform="translate(1313.183594 0)"/>
     <use xlink:href="#DejaVuSans-Bold-65" transform="translate(1360.986328 0)"/>
     <use xlink:href="#DejaVuSans-Bold-6d" transform="translate(1428.808594 0)"/>
     <use xlink:href="#DejaVuSans-Bold-20" transform="translate(1533.007812 0)"/>
     <use xlink:href="#DejaVuSans-Bold-46" transform="translate(1567.822266 0)"/>
     <use xlink:href="#DejaVuSans-Bold-6c" transform="translate(1636.132812 0)"/>
     <use xlink:href="#DejaVuSans-Bold-6f" transform="translate(1670.410156 0)"/>
     <use xlink:href="#DejaVuSans-Bold-77" transform="translate(1739.111328 0)"/>
     <use xlink:href="#DejaVuSans-Bold-63" transform="translate(1831.494141 0)"/>
     <use xlink:href="#DejaVuSans-Bold-68" transform="translate(1890.771484 0)"/>
     <use xlink:href="#DejaVuSans-Bold-61" transform="translate(1961.962891 0)"/>
     <use xlink:href="#DejaVuSans-Bold-72" transform="translate(2029.443359 0)"/>
     <use xlink:href="#DejaVuSans-Bold-74" transform="translate(2078.759766 0)"/>
    </g>
   </g>
   <g id="text_2">
    <!-- START -->
    <g style="fill: #ffffff" transform="translate(409.117344 108.875312) scale(0.11 -0.11)">
     <defs>
      <path id="DejaVuSans-Bold-54" d="M 31 4666 
L 4331 4666 
L 4331 3756 
L 2784 3756 
L 2784 0 
L 1581 0 
L 1581 3756 
L 31 3756 
L 31 4666 
z
" transform="scale(0.015625)"/>
      <path id="DejaVuSans-Bold-41" d="M 3419 850 
L 1538 850 
L 1241 0 
L 31 0 
L 1759 4666 
L 3194 4666 
L 4922 0 
L 3713 0 
L 3419 850 
z
M 1838 1716 
L 3116 1716 
L 2478 3572 
L 1838 1716 
z
" transform="scale(0.015625)"/>
      <path id="DejaVuSans-Bold-52" d="M 2297 2597 
Q 2675 2597 2839 2737 
Q 3003 2878 3003 3200 
Q 3003 3519 2839 3656 
Q 2675 3794 2297 3794 
L 1791 3794 
L 1791 2597 
L 2297 2597 
z
M 1791 1766 
L 1791 0 
L 588 0 
L 588 4666 
L 2425 4666 
Q 3347 4666 3776 4356 
Q 4206 4047 4206 3378 
Q 4206 2916 3982 2619 
Q 3759 2322 3309 2181 
Q 3556 2125 3751 1926 
Q 3947 1728 4147 1325 
L 4800 0 
L 3519 0 
L 2950 1159 
Q 2778 1509 2601 1637 
Q 2425 1766 2131 1766 
L 1791 1766 
z
" transform="scale(0.015625)"/>
     </defs>
     <use xlink:href="#DejaVuSans-Bold-53"/>
     <use xlink:href="#DejaVuSans-Bold-54" transform="translate(72.021484 0)"/>
     <use xlink:href="#DejaVuSans-Bold-41" transform="translate(132.484375 0)"/>
     <use xlink:href="#DejaVuSans-Bold-52" transform="translate(209.876953 0)"/>
     <use xlink:href="#DejaVuSans-Bold-54" transform="translate(282.378906 0)"/>
    </g>
   </g>
   <g id="patch_15">
    <path d="M 428.4 124.277604 
Q 428.4 137.076055 428.4 147.638437 
" style="fill: none; stroke: #000000; stroke-width: 2; stroke-linecap: round"/>
    <path d="M 430.4 143.638437 
L 428.4 147.638437 
L 426.4 143.638437 
" style="fill: none; stroke: #000000; stroke-width: 2; stroke-linecap: round"/>
   </g>
   <g id="text_3">
    <!-- Input Text -->
    <g transform="translate(376.052734 177.923313) scale(0.11 -0.11)">
     <defs>
      <path id="DejaVuSans-Bold-49" d="M 588 4666 
L 1791 4666 
L 1791 0 
L 588 0 
L 588 4666 
z
" transform="scale(0.015625)"/>
      <path id="DejaVuSans-Bold-75" d="M 500 1363 
L 500 3500 
L 1625 3500 
L 1625 3150 
Q 1625 2866 1622 2436 
Q 1619 2006 1619 1863 
Q 1619 1441 1641 1255 
Q 1663 1069 1716 984 
Q 1784 875 1895 815 
Q 2006 756 2150 756 
Q 2500 756 2700 1025 
Q 2900 1294 2900 1772 
L 2900 3500 
L 4019 3500 
L 4019 0 
L 2900 0 
L 2900 506 
Q 2647 200 2364 54 
Q 2081 -91 1741 -91 
Q 1134 -91 817 281 
Q 500 653 500 1363 
z
" transform="scale(0.015625)"/>
      <path id="DejaVuSans-Bold-78" d="M 1422 1791 
L 159 3500 
L 1344 3500 
L 2059 2463 
L 2784 3500 
L 3969 3500 
L 2706 1797 
L 4031 0 
L 2847 0 
L 2059 1106 
L 1281 0 
L 97 0 
L 1422 1791 
z
" transform="scale(0.015625)"/>
     </defs>
     <use xlink:href="#DejaVuSans-Bold-49"/>
     <use xlink:href="#DejaVuSans-Bold-6e" transform="translate(37.207031 0)"/>
     <use xlink:href="#DejaVuSans-Bold-70" transform="translate(108.398438 0)"/>
     <use xlink:href="#DejaVuSans-Bold-75" transform="translate(179.980469 0)"/>
     <use xlink:href="#DejaVuSans-Bold-74" transform="translate(251.171875 0)"/>
     <use xlink:href="#DejaVuSans-Bold-20" transform="translate(298.974609 0)"/>
     <use xlink:href="#DejaVuSans-Bold-54" transform="translate(333.789062 0)"/>
     <use xlink:href="#DejaVuSans-Bold-65" transform="translate(388.751953 0)"/>
     <use xlink:href="#DejaVuSans-Bold-78" transform="translate(456.574219 0)"/>
     <use xlink:href="#DejaVuSans-Bold-74" transform="translate(521.076172 0)"/>
    </g>
   </g>
   <g id="patch_16">
    <path d="M 428.4 199.906822 
Q 428.4 214.344692 428.4 226.546494 
" style="fill: none; stroke: #000000; stroke-width: 2; stroke-linecap: round"/>
    <path d="M 430.4 222.546494 
L 428.4 226.546494 
L 426.4 222.546494 
" style="fill: none; stroke: #000000; stroke-width: 2; stroke-linecap: round"/>
   </g>
   <g id="text_4">
    <!-- Text Preprocessing Pipeline -->
    <g transform="translate(350.275 250.512) scale(0.1 -0.1)">
     <defs>
      <path id="DejaVuSans-Bold-50" d="M 588 4666 
L 2584 4666 
Q 3475 4666 3951 4270 
Q 4428 3875 4428 3144 
Q 4428 2409 3951 2014 
Q 3475 1619 2584 1619 
L 1791 1619 
L 1791 0 
L 588 0 
L 588 4666 
z
M 1791 3794 
L 1791 2491 
L 2456 2491 
Q 2806 2491 2997 2661 
Q 3188 2831 3188 3144 
Q 3188 3456 2997 3625 
Q 2806 3794 2456 3794 
L 1791 3794 
z
" transform="scale(0.015625)"/>
     </defs>
     <use xlink:href="#DejaVuSans-Bold-54"/>
     <use xlink:href="#DejaVuSans-Bold-65" transform="translate(54.962891 0)"/>
     <use xlink:href="#DejaVuSans-Bold-78" transform="translate(122.785156 0)"/>
     <use xlink:href="#DejaVuSans-Bold-74" transform="translate(187.287109 0)"/>
     <use xlink:href="#DejaVuSans-Bold-20" transform="translate(235.089844 0)"/>
     <use xlink:href="#DejaVuSans-Bold-50" transform="translate(269.904297 0)"/>
     <use xlink:href="#DejaVuSans-Bold-72" transform="translate(343.195312 0)"/>
     <use xlink:href="#DejaVuSans-Bold-65" transform="translate(392.511719 0)"/>
     <use xlink:href="#DejaVuSans-Bold-70" transform="translate(460.333984 0)"/>
     <use xlink:href="#DejaVuSans-Bold-72" transform="translate(531.916016 0)"/>
     <use xlink:href="#DejaVuSans-Bold-6f" transform="translate(581.232422 0)"/>
     <use xlink:href="#DejaVuSans-Bold-63" transform="translate(649.933594 0)"/>
     <use xlink:href="#DejaVuSans-Bold-65" transform="translate(709.210938 0)"/>
     <use xlink:href="#DejaVuSans-Bold-73" transform="translate(777.033203 0)"/>
     <use xlink:href="#DejaVuSans-Bold-73" transform="translate(836.554688 0)"/>
     <use xlink:href="#DejaVuSans-Bold-69" transform="translate(896.076172 0)"/>
     <use xlink:href="#DejaVuSans-Bold-6e" transform="translate(930.353516 0)"/>
     <use xlink:href="#DejaVuSans-Bold-67" transform="translate(1001.544922 0)"/>
     <use xlink:href="#DejaVuSans-Bold-20" transform="translate(1073.126953 0)"/>
     <use xlink:href="#DejaVuSans-Bold-50" transform="translate(1107.941406 0)"/>
     <use xlink:href="#DejaVuSans-Bold-69" transform="translate(1181.232422 0)"/>
     <use xlink:href="#DejaVuSans-Bold-70" transform="translate(1215.509766 0)"/>
     <use xlink:href="#DejaVuSans-Bold-65" transform="translate(1287.091797 0)"/>
     <use xlink:href="#DejaVuSans-Bold-6c" transform="translate(1354.914062 0)"/>
     <use xlink:href="#DejaVuSans-Bold-69" transform="translate(1389.191406 0)"/>
     <use xlink:href="#DejaVuSans-Bold-6e" transform="translate(1423.46875 0)"/>
     <use xlink:href="#DejaVuSans-Bold-65" transform="translate(1494.660156 0)"/>
    </g>
   </g>
   <g id="patch_17">
    <path d="M 428.4 272.238809 
Q 428.4 289.968332 428.4 305.461788 
" style="fill: none; stroke: #000000; stroke-width: 2; stroke-linecap: round"/>
    <path d="M 430.4 301.461788 
L 428.4 305.461788 
L 426.4 301.461788 
" style="fill: none; stroke: #000000; stroke-width: 2; stroke-linecap: round"/>
   </g>
   <g id="text_5">
    <!-- Tokenization &amp; Word Extraction -->
    <g transform="translate(339.646875 329.424) scale(0.1 -0.1)">
     <defs>
      <path id="DejaVuSans-Bold-6b" d="M 538 4863 
L 1656 4863 
L 1656 2216 
L 2944 3500 
L 4244 3500 
L 2534 1894 
L 4378 0 
L 3022 0 
L 1656 1459 
L 1656 0 
L 538 0 
L 538 4863 
z
" transform="scale(0.015625)"/>
      <path id="DejaVuSans-Bold-7a" d="M 366 3500 
L 3419 3500 
L 3419 2719 
L 1575 800 
L 3419 800 
L 3419 0 
L 288 0 
L 288 781 
L 2131 2700 
L 366 2700 
L 366 3500 
z
" transform="scale(0.015625)"/>
      <path id="DejaVuSans-Bold-26" d="M 2497 3097 
L 3775 1691 
Q 3941 1909 4027 2181 
Q 4113 2453 4128 2797 
L 5100 2797 
Q 5053 2228 4879 1784 
Q 4706 1341 4397 1006 
L 5313 0 
L 3988 0 
L 3681 341 
Q 3353 122 2990 15 
Q 2628 -91 2222 -91 
Q 1400 -91 892 342 
Q 384 775 384 1459 
Q 384 1916 607 2267 
Q 831 2619 1338 2950 
Q 1206 3116 1143 3281 
Q 1081 3447 1081 3628 
Q 1081 4138 1478 4444 
Q 1875 4750 2534 4750 
Q 2819 4750 3126 4704 
Q 3434 4659 3769 4569 
L 3769 3700 
Q 3475 3850 3212 3922 
Q 2950 3994 2700 3994 
Q 2459 3994 2326 3901 
Q 2194 3809 2194 3641 
Q 2194 3534 2270 3398 
Q 2347 3263 2497 3097 
z
M 1875 2322 
Q 1672 2175 1569 1989 
Q 1466 1803 1466 1581 
Q 1466 1222 1731 969 
Q 1997 716 2369 716 
Q 2578 716 2759 780 
Q 2941 844 3097 972 
L 1875 2322 
z
" transform="scale(0.015625)"/>
      <path id="DejaVuSans-Bold-57" d="M 191 4666 
L 1344 4666 
L 2150 1275 
L 2950 4666 
L 4109 4666 
L 4909 1275 
L 5716 4666 
L 6859 4666 
L 5759 0 
L 4372 0 
L 3525 3547 
L 2688 0 
L 1300 0 
L 191 4666 
z
" transform="scale(0.015625)"/>
      <path id="DejaVuSans-Bold-64" d="M 2919 2988 
L 2919 4863 
L 4044 4863 
L 4044 0 
L 2919 0 
L 2919 506 
Q 2688 197 2409 53 
Q 2131 -91 1766 -91 
Q 1119 -91 703 423 
Q 288 938 288 1747 
Q 288 2556 703 3070 
Q 1119 3584 1766 3584 
Q 2128 3584 2408 3439 
Q 2688 3294 2919 2988 
z
M 2181 722 
Q 2541 722 2730 984 
Q 2919 1247 2919 1747 
Q 2919 2247 2730 2509 
Q 2541 2772 2181 2772 
Q 1825 2772 1636 2509 
Q 1447 2247 1447 1747 
Q 1447 1247 1636 984 
Q 1825 722 2181 722 
z
" transform="scale(0.015625)"/>
      <path id="DejaVuSans-Bold-45" d="M 588 4666 
L 3834 4666 
L 3834 3756 
L 1791 3756 
L 1791 2888 
L 3713 2888 
L 3713 1978 
L 1791 1978 
L 1791 909 
L 3903 909 
L 3903 0 
L 588 0 
L 588 4666 
z
" transform="scale(0.015625)"/>
     </defs>
     <use xlink:href="#DejaVuSans-Bold-54"/>
     <use xlink:href="#DejaVuSans-Bold-6f" transform="translate(54.962891 0)"/>
     <use xlink:href="#DejaVuSans-Bold-6b" transform="translate(123.664062 0)"/>
     <use xlink:href="#DejaVuSans-Bold-65" transform="translate(187.542969 0)"/>
     <use xlink:href="#DejaVuSans-Bold-6e" transform="translate(255.365234 0)"/>
     <use xlink:href="#DejaVuSans-Bold-69" transform="translate(326.556641 0)"/>
     <use xlink:href="#DejaVuSans-Bold-7a" transform="translate(360.833984 0)"/>
     <use xlink:href="#DejaVuSans-Bold-61" transform="translate(419.037109 0)"/>
     <use xlink:href="#DejaVuSans-Bold-74" transform="translate(486.517578 0)"/>
     <use xlink:href="#DejaVuSans-Bold-69" transform="translate(534.320312 0)"/>
     <use xlink:href="#DejaVuSans-Bold-6f" transform="translate(568.597656 0)"/>
     <use xlink:href="#DejaVuSans-Bold-6e" transform="translate(637.298828 0)"/>
     <use xlink:href="#DejaVuSans-Bold-20" transform="translate(708.490234 0)"/>
     <use xlink:href="#DejaVuSans-Bold-26" transform="translate(743.304688 0)"/>
     <use xlink:href="#DejaVuSans-Bold-20" transform="translate(830.511719 0)"/>
     <use xlink:href="#DejaVuSans-Bold-57" transform="translate(865.326172 0)"/>
     <use xlink:href="#DejaVuSans-Bold-6f" transform="translate(972.003906 0)"/>
     <use xlink:href="#DejaVuSans-Bold-72" transform="translate(1040.705078 0)"/>
     <use xlink:href="#DejaVuSans-Bold-64" transform="translate(1090.021484 0)"/>
     <use xlink:href="#DejaVuSans-Bold-20" transform="translate(1161.603516 0)"/>
     <use xlink:href="#DejaVuSans-Bold-45" transform="translate(1196.417969 0)"/>
     <use xlink:href="#DejaVuSans-Bold-78" transform="translate(1264.728516 0)"/>
     <use xlink:href="#DejaVuSans-Bold-74" transform="translate(1329.230469 0)"/>
     <use xlink:href="#DejaVuSans-Bold-72" transform="translate(1377.033203 0)"/>
     <use xlink:href="#DejaVuSans-Bold-61" transform="translate(1426.349609 0)"/>
     <use xlink:href="#DejaVuSans-Bold-63" transform="translate(1493.830078 0)"/>
     <use xlink:href="#DejaVuSans-Bold-74" transform="translate(1553.107422 0)"/>
     <use xlink:href="#DejaVuSans-Bold-69" transform="translate(1600.910156 0)"/>
     <use xlink:href="#DejaVuSans-Bold-6f" transform="translate(1635.1875 0)"/>
     <use xlink:href="#DejaVuSans-Bold-6e" transform="translate(1703.888672 0)"/>
    </g>
   </g>
   <g id="patch_18">
    <path d="M 428.4 351.150809 
Q 428.4 368.880332 428.4 384.373788 
" style="fill: none; stroke: #000000; stroke-width: 2; stroke-linecap: round"/>
    <path d="M 430.4 380.373788 
L 428.4 384.373788 
L 426.4 380.373788 
" style="fill: none; stroke: #000000; stroke-width: 2; stroke-linecap: round"/>
   </g>
   <g id="text_6">
    <!-- Parallel Algorithm Execution -->
    <g transform="translate(348.046875 408.336) scale(0.1 -0.1)">
     <use xlink:href="#DejaVuSans-Bold-50"/>
     <use xlink:href="#DejaVuSans-Bold-61" transform="translate(70.666016 0)"/>
     <use xlink:href="#DejaVuSans-Bold-72" transform="translate(138.146484 0)"/>
     <use xlink:href="#DejaVuSans-Bold-61" transform="translate(187.462891 0)"/>
     <use xlink:href="#DejaVuSans-Bold-6c" transform="translate(254.943359 0)"/>
     <use xlink:href="#DejaVuSans-Bold-6c" transform="translate(289.220703 0)"/>
     <use xlink:href="#DejaVuSans-Bold-65" transform="translate(323.498047 0)"/>
     <use xlink:href="#DejaVuSans-Bold-6c" transform="translate(391.320312 0)"/>
     <use xlink:href="#DejaVuSans-Bold-20" transform="translate(425.597656 0)"/>
     <use xlink:href="#DejaVuSans-Bold-41" transform="translate(460.412109 0)"/>
     <use xlink:href="#DejaVuSans-Bold-6c" transform="translate(537.804688 0)"/>
     <use xlink:href="#DejaVuSans-Bold-67" transform="translate(572.082031 0)"/>
     <use xlink:href="#DejaVuSans-Bold-6f" transform="translate(643.664062 0)"/>
     <use xlink:href="#DejaVuSans-Bold-72" transform="translate(712.365234 0)"/>
     <use xlink:href="#DejaVuSans-Bold-69" transform="translate(761.681641 0)"/>
     <use xlink:href="#DejaVuSans-Bold-74" transform="translate(795.958984 0)"/>
     <use xlink:href="#DejaVuSans-Bold-68" transform="translate(843.761719 0)"/>
     <use xlink:href="#DejaVuSans-Bold-6d" transform="translate(914.953125 0)"/>
     <use xlink:href="#DejaVuSans-Bold-20" transform="translate(1019.152344 0)"/>
     <use xlink:href="#DejaVuSans-Bold-45" transform="translate(1053.966797 0)"/>
     <use xlink:href="#DejaVuSans-Bold-78" transform="translate(1122.277344 0)"/>
     <use xlink:href="#DejaVuSans-Bold-65" transform="translate(1186.779297 0)"/>
     <use xlink:href="#DejaVuSans-Bold-63" transform="translate(1254.601562 0)"/>
     <use xlink:href="#DejaVuSans-Bold-75" transform="translate(1313.878906 0)"/>
     <use xlink:href="#DejaVuSans-Bold-74" transform="translate(1385.070312 0)"/>
     <use xlink:href="#DejaVuSans-Bold-69" transform="translate(1432.873047 0)"/>
     <use xlink:href="#DejaVuSans-Bold-6f" transform="translate(1467.150391 0)"/>
     <use xlink:href="#DejaVuSans-Bold-6e" transform="translate(1535.851562 0)"/>
    </g>
   </g>
   <g id="patch_19">
    <path d="M 428.4 430.066822 
Q 428.4 460.94726 428.4 489.591629 
" style="fill: none; stroke: #000000; stroke-width: 2; stroke-linecap: round"/>
    <path d="M 430.4 485.591629 
L 428.4 489.591629 
L 426.4 485.591629 
" style="fill: none; stroke: #000000; stroke-width: 2; stroke-linecap: round"/>
   </g>
   <g id="text_7">
    <!-- PySpellChecker -->
    <g transform="translate(94.272891 548.880281) scale(0.09 -0.09)">
     <use xlink:href="#DejaVuSans-Bold-50"/>
     <use xlink:href="#DejaVuSans-Bold-79" transform="translate(75.166016 0)"/>
     <use xlink:href="#DejaVuSans-Bold-53" transform="translate(140.351562 0)"/>
     <use xlink:href="#DejaVuSans-Bold-70" transform="translate(212.373047 0)"/>
     <use xlink:href="#DejaVuSans-Bold-65" transform="translate(283.955078 0)"/>
     <use xlink:href="#DejaVuSans-Bold-6c" transform="translate(351.777344 0)"/>
     <use xlink:href="#DejaVuSans-Bold-6c" transform="translate(386.054688 0)"/>
     <use xlink:href="#DejaVuSans-Bold-43" transform="translate(420.332031 0)"/>
     <use xlink:href="#DejaVuSans-Bold-68" transform="translate(493.720703 0)"/>
     <use xlink:href="#DejaVuSans-Bold-65" transform="translate(564.912109 0)"/>
     <use xlink:href="#DejaVuSans-Bold-63" transform="translate(632.734375 0)"/>
     <use xlink:href="#DejaVuSans-Bold-6b" transform="translate(692.011719 0)"/>
     <use xlink:href="#DejaVuSans-Bold-65" transform="translate(755.890625 0)"/>
     <use xlink:href="#DejaVuSans-Bold-72" transform="translate(823.712891 0)"/>
    </g>
   </g>
   <g id="text_8">
    <!-- Frequency-Based -->
    <g transform="translate(237.989875 538.74425) scale(0.08 -0.08)">
     <defs>
      <path id="DejaVuSans-Bold-71" d="M 2181 2772 
Q 1825 2772 1636 2509 
Q 1447 2247 1447 1747 
Q 1447 1247 1636 984 
Q 1825 722 2181 722 
Q 2541 722 2730 984 
Q 2919 1247 2919 1747 
Q 2919 2247 2730 2509 
Q 2541 2772 2181 2772 
z
M 2919 506 
Q 2688 197 2409 53 
Q 2131 -91 1766 -91 
Q 1119 -91 703 423 
Q 288 938 288 1747 
Q 288 2556 703 3067 
Q 1119 3578 1766 3578 
Q 2131 3578 2409 3434 
Q 2688 3291 2919 2981 
L 2919 3500 
L 4044 3500 
L 4044 -1331 
L 2919 -1331 
L 2919 506 
z
" transform="scale(0.015625)"/>
      <path id="DejaVuSans-Bold-2d" d="M 347 2297 
L 2309 2297 
L 2309 1388 
L 347 1388 
L 347 2297 
z
" transform="scale(0.015625)"/>
      <path id="DejaVuSans-Bold-42" d="M 2456 2859 
Q 2741 2859 2887 2984 
Q 3034 3109 3034 3353 
Q 3034 3594 2887 3720 
Q 2741 3847 2456 3847 
L 1791 3847 
L 1791 2859 
L 2456 2859 
z
M 2497 819 
Q 2859 819 3042 972 
Q 3225 1125 3225 1434 
Q 3225 1738 3044 1889 
Q 2863 2041 2497 2041 
L 1791 2041 
L 1791 819 
L 2497 819 
z
M 3616 2497 
Q 4003 2384 4215 2081 
Q 4428 1778 4428 1338 
Q 4428 663 3972 331 
Q 3516 0 2584 0 
L 588 0 
L 588 4666 
L 2394 4666 
Q 3366 4666 3802 4372 
Q 4238 4078 4238 3431 
Q 4238 3091 4078 2852 
Q 3919 2613 3616 2497 
z
" transform="scale(0.015625)"/>
     </defs>
     <use xlink:href="#DejaVuSans-Bold-46"/>
     <use xlink:href="#DejaVuSans-Bold-72" transform="translate(61.935547 0)"/>
     <use xlink:href="#DejaVuSans-Bold-65" transform="translate(111.251953 0)"/>
     <use xlink:href="#DejaVuSans-Bold-71" transform="translate(179.074219 0)"/>
     <use xlink:href="#DejaVuSans-Bold-75" transform="translate(250.65625 0)"/>
     <use xlink:href="#DejaVuSans-Bold-65" transform="translate(321.847656 0)"/>
     <use xlink:href="#DejaVuSans-Bold-6e" transform="translate(389.669922 0)"/>
     <use xlink:href="#DejaVuSans-Bold-63" transform="translate(460.861328 0)"/>
     <use xlink:href="#DejaVuSans-Bold-79" transform="translate(520.138672 0)"/>
     <use xlink:href="#DejaVuSans-Bold-2d" transform="translate(585.324219 0)"/>
     <use xlink:href="#DejaVuSans-Bold-42" transform="translate(626.828125 0)"/>
     <use xlink:href="#DejaVuSans-Bold-61" transform="translate(703.048828 0)"/>
     <use xlink:href="#DejaVuSans-Bold-73" transform="translate(770.529297 0)"/>
     <use xlink:href="#DejaVuSans-Bold-65" transform="translate(830.050781 0)"/>
     <use xlink:href="#DejaVuSans-Bold-64" transform="translate(897.873047 0)"/>
    </g>
   </g>
   <g id="text_9">
    <!-- Correction -->
    <g transform="translate(253.176125 558.5035) scale(0.08 -0.08)">
     <use xlink:href="#DejaVuSans-Bold-43"/>
     <use xlink:href="#DejaVuSans-Bold-6f" transform="translate(73.388672 0)"/>
     <use xlink:href="#DejaVuSans-Bold-72" transform="translate(142.089844 0)"/>
     <use xlink:href="#DejaVuSans-Bold-72" transform="translate(191.40625 0)"/>
     <use xlink:href="#DejaVuSans-Bold-65" transform="translate(240.722656 0)"/>
     <use xlink:href="#DejaVuSans-Bold-63" transform="translate(308.544922 0)"/>
     <use xlink:href="#DejaVuSans-Bold-74" transform="translate(367.822266 0)"/>
     <use xlink:href="#DejaVuSans-Bold-69" transform="translate(415.625 0)"/>
     <use xlink:href="#DejaVuSans-Bold-6f" transform="translate(449.902344 0)"/>
     <use xlink:href="#DejaVuSans-Bold-6e" transform="translate(518.603516 0)"/>
    </g>
   </g>
   <g id="text_10">
    <!-- AutoCorrect ML -->
    <g transform="translate(388.85625 548.915438) scale(0.09 -0.09)">
     <defs>
      <path id="DejaVuSans-Bold-4d" d="M 588 4666 
L 2119 4666 
L 3181 2169 
L 4250 4666 
L 5778 4666 
L 5778 0 
L 4641 0 
L 4641 3413 
L 3566 897 
L 2803 897 
L 1728 3413 
L 1728 0 
L 588 0 
L 588 4666 
z
" transform="scale(0.015625)"/>
      <path id="DejaVuSans-Bold-4c" d="M 588 4666 
L 1791 4666 
L 1791 909 
L 3903 909 
L 3903 0 
L 588 0 
L 588 4666 
z
" transform="scale(0.015625)"/>
     </defs>
     <use xlink:href="#DejaVuSans-Bold-41"/>
     <use xlink:href="#DejaVuSans-Bold-75" transform="translate(77.392578 0)"/>
     <use xlink:href="#DejaVuSans-Bold-74" transform="translate(148.583984 0)"/>
     <use xlink:href="#DejaVuSans-Bold-6f" transform="translate(196.386719 0)"/>
     <use xlink:href="#DejaVuSans-Bold-43" transform="translate(265.087891 0)"/>
     <use xlink:href="#DejaVuSans-Bold-6f" transform="translate(338.476562 0)"/>
     <use xlink:href="#DejaVuSans-Bold-72" transform="translate(407.177734 0)"/>
     <use xlink:href="#DejaVuSans-Bold-72" transform="translate(456.494141 0)"/>
     <use xlink:href="#DejaVuSans-Bold-65" transform="translate(505.810547 0)"/>
     <use xlink:href="#DejaVuSans-Bold-63" transform="translate(573.632812 0)"/>
     <use xlink:href="#DejaVuSans-Bold-74" transform="translate(632.910156 0)"/>
     <use xlink:href="#DejaVuSans-Bold-20" transform="translate(680.712891 0)"/>
     <use xlink:href="#DejaVuSans-Bold-4d" transform="translate(715.527344 0)"/>
     <use xlink:href="#DejaVuSans-Bold-4c" transform="translate(815.039062 0)"/>
    </g>
   </g>
   <g id="text_11">
    <!-- Levenshtein -->
    <g transform="translate(544.106125 538.7755) scale(0.08 -0.08)">
     <defs>
      <path id="DejaVuSans-Bold-76" d="M 97 3500 
L 1216 3500 
L 2088 1081 
L 2956 3500 
L 4078 3500 
L 2700 0 
L 1472 0 
L 97 3500 
z
" transform="scale(0.015625)"/>
     </defs>
     <use xlink:href="#DejaVuSans-Bold-4c"/>
     <use xlink:href="#DejaVuSans-Bold-65" transform="translate(63.720703 0)"/>
     <use xlink:href="#DejaVuSans-Bold-76" transform="translate(131.542969 0)"/>
     <use xlink:href="#DejaVuSans-Bold-65" transform="translate(196.728516 0)"/>
     <use xlink:href="#DejaVuSans-Bold-6e" transform="translate(264.550781 0)"/>
     <use xlink:href="#DejaVuSans-Bold-73" transform="translate(335.742188 0)"/>
     <use xlink:href="#DejaVuSans-Bold-68" transform="translate(395.263672 0)"/>
     <use xlink:href="#DejaVuSans-Bold-74" transform="translate(466.455078 0)"/>
     <use xlink:href="#DejaVuSans-Bold-65" transform="translate(514.257812 0)"/>
     <use xlink:href="#DejaVuSans-Bold-69" transform="translate(582.080078 0)"/>
     <use xlink:href="#DejaVuSans-Bold-6e" transform="translate(616.357422 0)"/>
    </g>
   </g>
   <g id="text_12">
    <!-- Distance -->
    <g transform="translate(551.992375 558.5035) scale(0.08 -0.08)">
     <defs>
      <path id="DejaVuSans-Bold-44" d="M 1791 3756 
L 1791 909 
L 2222 909 
Q 2959 909 3348 1275 
Q 3738 1641 3738 2338 
Q 3738 3031 3350 3393 
Q 2963 3756 2222 3756 
L 1791 3756 
z
M 588 4666 
L 1856 4666 
Q 2919 4666 3439 4514 
Q 3959 4363 4331 4000 
Q 4659 3684 4818 3271 
Q 4978 2859 4978 2338 
Q 4978 1809 4818 1395 
Q 4659 981 4331 666 
Q 3956 303 3431 151 
Q 2906 0 1856 0 
L 588 0 
L 588 4666 
z
" transform="scale(0.015625)"/>
     </defs>
     <use xlink:href="#DejaVuSans-Bold-44"/>
     <use xlink:href="#DejaVuSans-Bold-69" transform="translate(83.007812 0)"/>
     <use xlink:href="#DejaVuSans-Bold-73" transform="translate(117.285156 0)"/>
     <use xlink:href="#DejaVuSans-Bold-74" transform="translate(176.806641 0)"/>
     <use xlink:href="#DejaVuSans-Bold-61" transform="translate(224.609375 0)"/>
     <use xlink:href="#DejaVuSans-Bold-6e" transform="translate(292.089844 0)"/>
     <use xlink:href="#DejaVuSans-Bold-63" transform="translate(363.28125 0)"/>
     <use xlink:href="#DejaVuSans-Bold-65" transform="translate(422.558594 0)"/>
    </g>
   </g>
   <g id="patch_20">
    <path d="M 135.52602 579.662795 
Q 280.977617 605.615575 424.778238 631.273773 
" style="fill: none; stroke: #000000; stroke-width: 1.5; stroke-linecap: round"/>
    <path d="M 421.19174 628.60225 
L 424.778238 631.273773 
L 420.489121 632.540057 
" style="fill: none; stroke: #000000; stroke-width: 1.5; stroke-linecap: round"/>
   </g>
   <g id="patch_21">
    <path d="M 278.660624 579.968637 
Q 352.586672 605.616927 424.928319 630.715517 
" style="fill: none; stroke: #000000; stroke-width: 1.5; stroke-linecap: round"/>
    <path d="M 421.804856 627.514895 
L 424.928319 630.715517 
L 420.493744 631.293914 
" style="fill: none; stroke: #000000; stroke-width: 1.5; stroke-linecap: round"/>
   </g>
   <g id="patch_22">
    <path d="M 428.4 581.312414 
Q 428.4 605.616967 428.4 628.244468 
" style="fill: none; stroke: #000000; stroke-width: 1.5; stroke-linecap: round"/>
    <path d="M 430.4 624.244468 
L 428.4 628.244468 
L 426.4 624.244468 
" style="fill: none; stroke: #000000; stroke-width: 1.5; stroke-linecap: round"/>
   </g>
   <g id="patch_23">
    <path d="M 569.733115 580.000746 
Q 500.004666 605.615755 431.850411 630.652478 
" style="fill: none; stroke: #000000; stroke-width: 1.5; stroke-linecap: round"/>
    <path d="M 436.294728 631.150521 
L 431.850411 630.652478 
L 434.915436 627.395851 
" style="fill: none; stroke: #000000; stroke-width: 1.5; stroke-linecap: round"/>
   </g>
   <g id="text_13">
    <!-- Performance Comparison &amp; Analysis -->
    <g transform="translate(325.860938 651.648) scale(0.1 -0.1)">
     <defs>
      <path id="DejaVuSans-Bold-66" d="M 2841 4863 
L 2841 4128 
L 2222 4128 
Q 1984 4128 1890 4042 
Q 1797 3956 1797 3744 
L 1797 3500 
L 2753 3500 
L 2753 2700 
L 1797 2700 
L 1797 0 
L 678 0 
L 678 2700 
L 122 2700 
L 122 3500 
L 678 3500 
L 678 3744 
Q 678 4316 997 4589 
Q 1316 4863 1984 4863 
L 2841 4863 
z
" transform="scale(0.015625)"/>
     </defs>
     <use xlink:href="#DejaVuSans-Bold-50"/>
     <use xlink:href="#DejaVuSans-Bold-65" transform="translate(73.291016 0)"/>
     <use xlink:href="#DejaVuSans-Bold-72" transform="translate(141.113281 0)"/>
     <use xlink:href="#DejaVuSans-Bold-66" transform="translate(190.429688 0)"/>
     <use xlink:href="#DejaVuSans-Bold-6f" transform="translate(233.935547 0)"/>
     <use xlink:href="#DejaVuSans-Bold-72" transform="translate(302.636719 0)"/>
     <use xlink:href="#DejaVuSans-Bold-6d" transform="translate(351.953125 0)"/>
     <use xlink:href="#DejaVuSans-Bold-61" transform="translate(456.152344 0)"/>
     <use xlink:href="#DejaVuSans-Bold-6e" transform="translate(523.632812 0)"/>
     <use xlink:href="#DejaVuSans-Bold-63" transform="translate(594.824219 0)"/>
     <use xlink:href="#DejaVuSans-Bold-65" transform="translate(654.101562 0)"/>
     <use xlink:href="#DejaVuSans-Bold-20" transform="translate(721.923828 0)"/>
     <use xlink:href="#DejaVuSans-Bold-43" transform="translate(756.738281 0)"/>
     <use xlink:href="#DejaVuSans-Bold-6f" transform="translate(830.126953 0)"/>
     <use xlink:href="#DejaVuSans-Bold-6d" transform="translate(898.828125 0)"/>
     <use xlink:href="#DejaVuSans-Bold-70" transform="translate(1003.027344 0)"/>
     <use xlink:href="#DejaVuSans-Bold-61" transform="translate(1074.609375 0)"/>
     <use xlink:href="#DejaVuSans-Bold-72" transform="translate(1142.089844 0)"/>
     <use xlink:href="#DejaVuSans-Bold-69" transform="translate(1191.40625 0)"/>
     <use xlink:href="#DejaVuSans-Bold-73" transform="translate(1225.683594 0)"/>
     <use xlink:href="#DejaVuSans-Bold-6f" transform="translate(1285.205078 0)"/>
     <use xlink:href="#DejaVuSans-Bold-6e" transform="translate(1353.90625 0)"/>
     <use xlink:href="#DejaVuSans-Bold-20" transform="translate(1425.097656 0)"/>
     <use xlink:href="#DejaVuSans-Bold-26" transform="translate(1459.912109 0)"/>
     <use xlink:href="#DejaVuSans-Bold-20" transform="translate(1547.119141 0)"/>
     <use xlink:href="#DejaVuSans-Bold-41" transform="translate(1581.933594 0)"/>
     <use xlink:href="#DejaVuSans-Bold-6e" transform="translate(1659.326172 0)"/>
     <use xlink:href="#DejaVuSans-Bold-61" transform="translate(1730.517578 0)"/>
     <use xlink:href="#DejaVuSans-Bold-6c" transform="translate(1797.998047 0)"/>
     <use xlink:href="#DejaVuSans-Bold-79" transform="translate(1832.275391 0)"/>
     <use xlink:href="#DejaVuSans-Bold-73" transform="translate(1897.460938 0)"/>
     <use xlink:href="#DejaVuSans-Bold-69" transform="translate(1956.982422 0)"/>
     <use xlink:href="#DejaVuSans-Bold-73" transform="translate(1991.259766 0)"/>
    </g>
   </g>
   <g id="patch_24">
    <path d="M 428.4 673.374809 
Q 428.4 691.104332 428.4 706.597788 
" style="fill: none; stroke: #000000; stroke-width: 2; stroke-linecap: round"/>
    <path d="M 430.4 702.597788 
L 428.4 706.597788 
L 426.4 702.597788 
" style="fill: none; stroke: #000000; stroke-width: 2; stroke-linecap: round"/>
   </g>
   <g id="text_14">
    <!-- Individual Algorithm Outputs -->
    <g transform="translate(346.365625 730.56) scale(0.1 -0.1)">
     <defs>
      <path id="DejaVuSans-Bold-4f" d="M 2719 3878 
Q 2169 3878 1866 3472 
Q 1563 3066 1563 2328 
Q 1563 1594 1866 1187 
Q 2169 781 2719 781 
Q 3272 781 3575 1187 
Q 3878 1594 3878 2328 
Q 3878 3066 3575 3472 
Q 3272 3878 2719 3878 
z
M 2719 4750 
Q 3844 4750 4481 4106 
Q 5119 3463 5119 2328 
Q 5119 1197 4481 553 
Q 3844 -91 2719 -91 
Q 1597 -91 958 553 
Q 319 1197 319 2328 
Q 319 3463 958 4106 
Q 1597 4750 2719 4750 
z
" transform="scale(0.015625)"/>
     </defs>
     <use xlink:href="#DejaVuSans-Bold-49"/>
     <use xlink:href="#DejaVuSans-Bold-6e" transform="translate(37.207031 0)"/>
     <use xlink:href="#DejaVuSans-Bold-64" transform="translate(108.398438 0)"/>
     <use xlink:href="#DejaVuSans-Bold-69" transform="translate(179.980469 0)"/>
     <use xlink:href="#DejaVuSans-Bold-76" transform="translate(214.257812 0)"/>
     <use xlink:href="#DejaVuSans-Bold-69" transform="translate(279.443359 0)"/>
     <use xlink:href="#DejaVuSans-Bold-64" transform="translate(313.720703 0)"/>
     <use xlink:href="#DejaVuSans-Bold-75" transform="translate(385.302734 0)"/>
     <use xlink:href="#DejaVuSans-Bold-61" transform="translate(456.494141 0)"/>
     <use xlink:href="#DejaVuSans-Bold-6c" transform="translate(523.974609 0)"/>
     <use xlink:href="#DejaVuSans-Bold-20" transform="translate(558.251953 0)"/>
     <use xlink:href="#DejaVuSans-Bold-41" transform="translate(593.066406 0)"/>
     <use xlink:href="#DejaVuSans-Bold-6c" transform="translate(670.458984 0)"/>
     <use xlink:href="#DejaVuSans-Bold-67" transform="translate(704.736328 0)"/>
     <use xlink:href="#DejaVuSans-Bold-6f" transform="translate(776.318359 0)"/>
     <use xlink:href="#DejaVuSans-Bold-72" transform="translate(845.019531 0)"/>
     <use xlink:href="#DejaVuSans-Bold-69" transform="translate(894.335938 0)"/>
     <use xlink:href="#DejaVuSans-Bold-74" transform="translate(928.613281 0)"/>
     <use xlink:href="#DejaVuSans-Bold-68" transform="translate(976.416016 0)"/>
     <use xlink:href="#DejaVuSans-Bold-6d" transform="translate(1047.607422 0)"/>
     <use xlink:href="#DejaVuSans-Bold-20" transform="translate(1151.806641 0)"/>
     <use xlink:href="#DejaVuSans-Bold-4f" transform="translate(1186.621094 0)"/>
     <use xlink:href="#DejaVuSans-Bold-75" transform="translate(1271.630859 0)"/>
     <use xlink:href="#DejaVuSans-Bold-74" transform="translate(1342.822266 0)"/>
     <use xlink:href="#DejaVuSans-Bold-70" transform="translate(1390.625 0)"/>
     <use xlink:href="#DejaVuSans-Bold-75" transform="translate(1462.207031 0)"/>
     <use xlink:href="#DejaVuSans-Bold-74" transform="translate(1533.398438 0)"/>
     <use xlink:href="#DejaVuSans-Bold-73" transform="translate(1581.201172 0)"/>
    </g>
   </g>
   <g id="patch_25">
    <path d="M 428.4 752.288414 
Q 428.4 776.592967 428.4 798.661451 
" style="fill: none; stroke: #000000; stroke-width: 2; stroke-linecap: round"/>
    <path d="M 430.4 794.661451 
L 428.4 798.661451 
L 426.4 794.661451 
" style="fill: none; stroke: #000000; stroke-width: 2; stroke-linecap: round"/>
   </g>
   <g id="text_15">
    <!-- Output: Corrected Text -->
    <g transform="translate(336.153672 832.235313) scale(0.11 -0.11)">
     <defs>
      <path id="DejaVuSans-Bold-3a" d="M 716 3500 
L 1844 3500 
L 1844 2291 
L 716 2291 
L 716 3500 
z
M 716 1209 
L 1844 1209 
L 1844 0 
L 716 0 
L 716 1209 
z
" transform="scale(0.015625)"/>
     </defs>
     <use xlink:href="#DejaVuSans-Bold-4f"/>
     <use xlink:href="#DejaVuSans-Bold-75" transform="translate(85.009766 0)"/>
     <use xlink:href="#DejaVuSans-Bold-74" transform="translate(156.201172 0)"/>
     <use xlink:href="#DejaVuSans-Bold-70" transform="translate(204.003906 0)"/>
     <use xlink:href="#DejaVuSans-Bold-75" transform="translate(275.585938 0)"/>
     <use xlink:href="#DejaVuSans-Bold-74" transform="translate(346.777344 0)"/>
     <use xlink:href="#DejaVuSans-Bold-3a" transform="translate(394.580078 0)"/>
     <use xlink:href="#DejaVuSans-Bold-20" transform="translate(434.570312 0)"/>
     <use xlink:href="#DejaVuSans-Bold-43" transform="translate(469.384766 0)"/>
     <use xlink:href="#DejaVuSans-Bold-6f" transform="translate(542.773438 0)"/>
     <use xlink:href="#DejaVuSans-Bold-72" transform="translate(611.474609 0)"/>
     <use xlink:href="#DejaVuSans-Bold-72" transform="translate(660.791016 0)"/>
     <use xlink:href="#DejaVuSans-Bold-65" transform="translate(710.107422 0)"/>
     <use xlink:href="#DejaVuSans-Bold-63" transform="translate(777.929688 0)"/>
     <use xlink:href="#DejaVuSans-Bold-74" transform="translate(837.207031 0)"/>
     <use xlink:href="#DejaVuSans-Bold-65" transform="translate(885.009766 0)"/>
     <use xlink:href="#DejaVuSans-Bold-64" transform="translate(952.832031 0)"/>
     <use xlink:href="#DejaVuSans-Bold-20" transform="translate(1024.414062 0)"/>
     <use xlink:href="#DejaVuSans-Bold-54" transform="translate(1059.228516 0)"/>
     <use xlink:href="#DejaVuSans-Bold-65" transform="translate(1114.191406 0)"/>
     <use xlink:href="#DejaVuSans-Bold-78" transform="translate(1182.013672 0)"/>
     <use xlink:href="#DejaVuSans-Bold-74" transform="translate(1246.515625 0)"/>
    </g>
   </g>
   <g id="patch_26">
    <path d="M 428.4 857.502809 
Q 428.4 875.232332 428.4 890.725788 
" style="fill: none; stroke: #000000; stroke-width: 2; stroke-linecap: round"/>
    <path d="M 430.4 886.725788 
L 428.4 890.725788 
L 426.4 886.725788 
" style="fill: none; stroke: #000000; stroke-width: 2; stroke-linecap: round"/>
   </g>
   <g id="text_16">
    <!-- END -->
    <g style="fill: #ffffff" transform="translate(415.474141 911.147312) scale(0.11 -0.11)">
     <defs>
      <path id="DejaVuSans-Bold-4e" d="M 588 4666 
L 1931 4666 
L 3628 1466 
L 3628 4666 
L 4769 4666 
L 4769 0 
L 3425 0 
L 1728 3200 
L 1728 0 
L 588 0 
L 588 4666 
z
" transform="scale(0.015625)"/>
     </defs>
     <use xlink:href="#DejaVuSans-Bold-45"/>
     <use xlink:href="#DejaVuSans-Bold-4e" transform="translate(68.310547 0)"/>
     <use xlink:href="#DejaVuSans-Bold-44" transform="translate(152.001953 0)"/>
    </g>
   </g>
  </g>
 </g>
 <defs>
  <clipPath id="p00b8de341a">
   <rect x="7.2" y="7.2" width="842.4" height="986.4"/>
  </clipPath>
 </defs>
</svg>
